<svg width="671" height="417" viewBox="0 0 671 417" fill="none" xmlns="http://www.w3.org/2000/svg">
<mask id="path-1-outside-1_82_124" maskUnits="userSpaceOnUse" x="257" y="67" width="157" height="215" fill="black">
<rect fill="white" x="257" y="67" width="157" height="215"/>
<path d="M289.008 68H412.008L335.508 278.3L259.008 68H268.608L335.508 251.9L399.108 77H289.008V68Z"/>
</mask>
<path d="M289.008 68H412.008L335.508 278.3L259.008 68H268.608L335.508 251.9L399.108 77H289.008V68Z" fill="#CA0909"/>
<path d="M289.008 68V67H288.008V68H289.008ZM412.008 68L412.948 68.3418L413.436 67H412.008V68ZM335.508 278.3L334.568 278.642L335.508 281.225L336.448 278.642L335.508 278.3ZM259.008 68V67H257.58L258.068 68.3418L259.008 68ZM268.608 68L269.548 67.6581L269.309 67H268.608V68ZM335.508 251.9L334.568 252.242L335.508 254.826L336.448 252.242L335.508 251.9ZM399.108 77L400.048 77.3417L400.536 76H399.108V77ZM289.008 77H288.008V78H289.008V77ZM289.008 69H412.008V67H289.008V69ZM411.068 67.6581L334.568 277.958L336.448 278.642L412.948 68.3418L411.068 67.6581ZM336.448 277.958L259.948 67.6581L258.068 68.3418L334.568 278.642L336.448 277.958ZM259.008 69H268.608V67H259.008V69ZM267.668 68.3419L334.568 252.242L336.448 251.558L269.548 67.6581L267.668 68.3419ZM336.448 252.242L400.048 77.3417L398.168 76.6583L334.568 251.558L336.448 252.242ZM399.108 76H289.008V78H399.108V76ZM290.008 77V68H288.008V77H290.008Z" fill="black" mask="url(#path-1-outside-1_82_124)"/>
<mask id="path-3-outside-2_82_124" maskUnits="userSpaceOnUse" x="407" y="67" width="135" height="212" fill="black">
<rect fill="white" x="407" y="67" width="135" height="212"/>
<path d="M437.584 278H408.784V68H437.584C466.384 68 490.784 78.6 510.784 99.8C530.784 121 540.784 145.4 540.784 173C540.784 200.6 530.784 225 510.784 246.2C490.784 267.4 466.384 278 437.584 278ZM437.584 269C463.784 269 485.984 259.4 504.184 240.2C522.584 220.8 531.784 198.4 531.784 173C531.784 147.6 522.584 125.3 504.184 106.1C485.984 86.7 463.784 77 437.584 77H417.784V269H437.584Z"/>
</mask>
<path d="M437.584 278H408.784V68H437.584C466.384 68 490.784 78.6 510.784 99.8C530.784 121 540.784 145.4 540.784 173C540.784 200.6 530.784 225 510.784 246.2C490.784 267.4 466.384 278 437.584 278ZM437.584 269C463.784 269 485.984 259.4 504.184 240.2C522.584 220.8 531.784 198.4 531.784 173C531.784 147.6 522.584 125.3 504.184 106.1C485.984 86.7 463.784 77 437.584 77H417.784V269H437.584Z" fill="#FFB907"/>
<path d="M408.784 278H407.784V279H408.784V278ZM408.784 68V67H407.784V68H408.784ZM510.784 99.8L510.057 100.486L510.057 100.486L510.784 99.8ZM510.784 246.2L510.057 245.514L510.057 245.514L510.784 246.2ZM504.184 240.2L503.458 239.512L503.458 239.512L504.184 240.2ZM504.184 106.1L503.455 106.784L503.462 106.792L504.184 106.1ZM417.784 77V76H416.784V77H417.784ZM417.784 269H416.784V270H417.784V269ZM437.584 277H408.784V279H437.584V277ZM409.784 278V68H407.784V278H409.784ZM408.784 69H437.584V67H408.784V69ZM437.584 69C466.105 69 490.243 79.4838 510.057 100.486L511.511 99.1138C491.325 77.7162 466.663 67 437.584 67V69ZM510.057 100.486C529.892 121.512 539.784 145.67 539.784 173H541.784C541.784 145.13 531.676 120.488 511.511 99.1138L510.057 100.486ZM539.784 173C539.784 200.33 529.892 224.488 510.057 245.514L511.511 246.886C531.676 225.512 541.784 200.87 541.784 173H539.784ZM510.057 245.514C490.243 266.516 466.105 277 437.584 277V279C466.663 279 491.325 268.284 511.511 246.886L510.057 245.514ZM437.584 270C464.061 270 486.523 260.285 504.91 240.888L503.458 239.512C485.445 258.515 463.506 268 437.584 268V270ZM504.91 240.888C523.476 221.313 532.784 198.671 532.784 173H530.784C530.784 198.129 521.692 220.287 503.458 239.512L504.91 240.888ZM532.784 173C532.784 147.329 523.475 124.785 504.906 105.408L503.462 106.792C521.693 125.815 530.784 147.871 530.784 173H532.784ZM504.913 105.416C486.528 85.8178 464.065 76 437.584 76V78C463.503 78 485.44 87.5822 503.455 106.784L504.913 105.416ZM437.584 76H417.784V78H437.584V76ZM416.784 77V269H418.784V77H416.784ZM417.784 270H437.584V268H417.784V270Z" fill="black" mask="url(#path-3-outside-2_82_124)"/>
<path d="M384.987 185.977L405.742 192.5H385.137H367.201L372.357 177.5H406.106L384.97 185.029L383.564 185.53L384.987 185.977Z" fill="#FF0000" stroke="black"/>
<path d="M507.334 129.01L507.517 129.481L507.986 129.293L513.586 127.047L514.048 126.862L513.865 126.4C510.238 117.213 505.122 110.122 498.503 105.156C491.843 100.024 481.847 97.5 468.6 97.5C452.091 97.5 440.047 102.713 432.593 113.226C425.169 123.562 421.5 139.683 421.5 161.496V181.504C421.5 203.319 425.169 219.506 432.592 229.977L432.594 229.979C440.049 240.357 452.093 245.5 468.6 245.5C483.464 245.5 494.99 242.289 503.111 235.796C511.345 229.319 515.5 221.423 515.5 212.129V173.542V173.042H515H483.2H482.7V173.542V179.667V180.167H483.2H507.3V214.171C507.3 219.938 503.904 225.455 496.902 230.715C489.948 235.804 480.531 238.375 468.6 238.375C462.109 238.375 456.57 237.564 451.971 235.955C447.388 234.216 443.254 231.339 439.569 227.308C435.911 223.308 433.141 217.542 431.286 209.97C429.432 202.262 428.5 192.777 428.5 181.504V161.496C428.5 150.223 429.432 140.806 431.286 133.236L431.286 133.234C433.141 125.523 435.912 119.691 439.569 115.692C443.253 111.662 447.385 108.854 451.965 107.251L451.965 107.251L451.977 107.247C456.573 105.504 462.11 104.625 468.6 104.625C480.424 104.625 489.023 106.798 494.493 111.053L494.493 111.053L494.499 111.058C500.011 115.21 504.294 121.184 507.334 129.01Z" fill="#7C00B7" stroke="black"/>
</svg>
